<svg width="160" height="160" viewBox="0 0 160 160" fill="none" xmlns="http://www.w3.org/2000/svg">
<path d="M19.9047 42.8114C17.9532 41.738 16.392 40.1768 15.3187 38.3229C14.1478 36.3714 13.6599 34.2247 13.6599 31.8829C13.6599 29.5411 14.2453 27.3944 15.3187 25.4429C16.392 23.4914 17.9532 22.0278 19.9047 20.9545C21.8562 19.8811 24.1005 19.2957 26.5398 19.2957C28.9792 19.2957 31.1259 19.8811 33.175 20.9545C35.1265 22.0278 36.6877 23.589 37.761 25.4429C38.9319 27.3944 39.4198 29.5411 39.4198 31.8829C39.4198 34.2247 38.8343 36.469 37.761 38.3229C36.6877 40.2744 35.1265 41.738 33.175 42.8114C31.2235 43.8847 28.9792 44.4701 26.5398 44.4701C24.1005 44.4701 21.8562 43.8847 19.9047 42.8114ZM32.1017 41.3477C33.7604 40.372 35.1265 39.1035 36.1023 37.4447C37.078 35.7859 37.5659 33.932 37.5659 31.8829C37.5659 29.8338 37.078 27.9799 36.1023 26.3211C35.1265 24.6623 33.858 23.3938 32.1017 22.4181C30.4429 21.4423 28.589 20.9545 26.4423 20.9545C24.3932 20.9545 22.4417 21.4423 20.7829 22.4181C19.1241 23.3938 17.7581 24.6623 16.7823 26.3211C15.8066 27.9799 15.3187 29.8338 15.3187 31.8829C15.3187 33.932 15.8066 35.7859 16.7823 37.4447C17.7581 39.1035 19.1241 40.372 20.7829 41.3477C22.4417 42.3235 24.3932 42.8114 26.4423 42.8114C28.589 42.8114 30.4429 42.3235 32.1017 41.3477Z" fill="#D8BA72"/>
<path d="M61.2772 21.0521H52.3002V44.275H50.4463V21.0521H41.4694V19.3933H61.1796V21.0521H61.2772Z" fill="#D8BA72"/>
<path d="M86.9396 42.6162V49.9344H85.1832V44.275H62.4481V49.9344H60.6918V42.6162H62.0579C63.7166 42.5186 64.79 41.1526 65.473 38.5181C66.156 35.8835 66.5463 32.2732 66.6439 27.5896L66.9366 19.3933H83.0366V42.6162H86.9396ZM67.4245 37.6399C66.9366 40.1768 66.156 41.8356 64.9851 42.7138H81.2802V21.1496H68.5954L68.4003 27.7848C68.3027 31.7853 67.9124 35.0053 67.4245 37.6399Z" fill="#D8BA72"/>
<path d="M108.504 37.2496H94.0625L90.94 44.275H88.9885L100.405 19.4908H102.259L113.675 44.275H111.724L108.504 37.2496ZM107.821 35.7859L101.283 21.4424L94.843 35.7859H107.821Z" fill="#D8BA72"/>
<path d="M144.509 20.8569C146.363 21.9302 147.827 23.4914 148.9 25.3454C149.973 27.2969 150.461 29.4435 150.461 31.7853C150.461 34.1272 149.973 36.3714 148.9 38.2253C147.827 40.1768 146.363 41.6405 144.509 42.7138C142.655 43.7871 140.606 44.3726 138.264 44.3726C136.02 44.3726 133.971 43.8847 132.214 42.8114C130.361 41.738 128.897 40.372 127.824 38.518C126.75 36.6641 126.165 34.615 126.067 32.3708H120.505V44.1774H118.651V19.3933H120.505V30.8096H126.067C126.165 28.5654 126.848 26.6138 127.921 24.8575C128.994 23.1011 130.458 21.7351 132.312 20.7593C134.068 19.7836 136.117 19.2957 138.264 19.2957C140.606 19.2957 142.655 19.7836 144.509 20.8569ZM143.631 41.3477C145.192 40.372 146.46 39.1035 147.339 37.4447C148.217 35.7859 148.705 33.932 148.705 31.8829C148.705 29.8338 148.217 27.9799 147.339 26.3211C146.46 24.6623 145.192 23.3938 143.631 22.4181C142.07 21.4423 140.313 20.9545 138.362 20.9545C136.41 20.9545 134.654 21.4423 133.093 22.4181C131.531 23.3938 130.263 24.6623 129.385 26.3211C128.507 27.9799 128.019 29.8338 128.019 31.8829C128.019 33.932 128.507 35.7859 129.385 37.4447C130.263 39.1035 131.531 40.372 133.093 41.3477C134.654 42.3235 136.41 42.8114 138.362 42.8114C140.216 42.8114 141.972 42.3235 143.631 41.3477Z" fill="#D8BA72"/>
<path d="M15.2217 62.2289C15.2217 61.2531 15.2217 60.2774 15.2217 59.4968C15.2217 58.7162 15.1241 57.9355 15.1241 57.1549C16.1974 56.4719 17.1732 55.9841 18.2465 55.5938C19.3198 55.2035 20.4907 55.0083 21.7592 55.0083C22.735 55.0083 23.6131 55.1059 24.5889 55.3986C25.4671 55.6913 26.3453 56.0816 27.0283 56.5695C27.7113 57.155 28.2968 57.7404 28.7847 58.521C29.175 59.3016 29.4677 60.2774 29.4677 61.2531C29.4677 62.3265 29.2725 63.2046 28.9798 64.0828C28.5895 64.961 28.1992 65.7416 27.6137 66.5222C27.0283 67.3028 26.3453 68.0834 25.5647 68.7664C24.7841 69.4495 24.0034 70.2301 23.1253 71.0107L17.4659 76.1821L26.3453 75.987C26.638 75.987 27.0283 75.987 27.2234 75.8894C27.5162 75.7919 27.7113 75.6943 28.004 75.4991C28.2968 75.304 28.4919 75.0113 28.7847 74.621C29.0774 74.2307 29.2725 73.6452 29.5653 72.9622L30.6386 73.2549C30.541 73.6452 30.4434 74.1331 30.3459 74.621C30.2483 75.1088 30.1507 75.5967 30.0531 76.0846C29.9556 76.5725 29.858 77.0603 29.858 77.5482C29.7604 78.0361 29.7604 78.4264 29.7604 78.7191H25.7598C24.6865 78.7191 23.8083 78.7191 23.1253 78.7191C22.4422 78.7191 21.8568 78.7191 21.3689 78.7191H18.4417C17.8562 78.7191 17.2707 78.7191 16.7829 78.7191C16.1974 78.7191 15.7096 78.7191 15.1241 78.7191H14.0508L13.7581 78.1337L20.198 71.8888C20.9786 71.1082 21.7592 70.3276 22.4423 69.547C23.1253 68.7664 23.8083 67.9858 24.2962 67.2052C24.8816 66.4246 25.2719 65.644 25.5647 64.7658C25.8574 63.9852 26.0525 63.1071 26.0525 62.2289C26.0525 61.5458 25.955 60.8628 25.6622 60.2774C25.3695 59.6919 25.0768 59.1065 24.5889 58.7162C24.101 58.3259 23.6132 57.9356 23.0277 57.7404C22.4423 57.5452 21.7592 57.3501 21.1738 57.3501C20.4907 57.3501 19.8077 57.4477 19.3198 57.7404C18.7344 58.0331 18.2465 58.3259 17.8562 58.8137C17.4659 59.204 17.1732 59.7895 16.8805 60.3749C16.6853 60.9604 16.4902 61.6434 16.4902 62.424L15.2217 62.2289Z" fill="#D8BA72"/>
<path d="M51.91 68.9615H56.5937V69.7422H51.91V68.9615Z" fill="#D8BA72"/>
<path d="M65.5705 65.5464H61.8627V74.2306H60.8869V65.5464H57.1791V64.7658H65.473V65.5464H65.5705Z" fill="#D8BA72"/>
<path d="M67.522 64.7658H68.4002V72.8646L75.1329 64.7658H75.9135V74.2306H75.0353V66.1319L68.3026 74.2306H67.522V64.7658Z" fill="#D8BA72"/>
<path d="M92.0136 64.7659V74.2307H91.1354V65.5464H86.159L86.0615 68.0834C85.9639 69.3519 85.8663 70.5228 85.7687 71.401C85.6712 72.2792 85.3784 72.9622 84.9881 73.5476C84.5978 74.1331 84.11 74.3282 83.5245 74.3282C83.3294 74.3282 83.0366 74.3282 82.7439 74.2307L82.8415 73.4501C83.0366 73.4501 83.1342 73.5476 83.2318 73.5476C83.7197 73.5476 84.11 73.2549 84.4027 72.767C84.6954 72.2791 84.8906 71.6937 84.9881 70.9131C85.0857 70.1325 85.1833 69.2543 85.1833 67.9858L85.3784 64.6683H92.0136V64.7659Z" fill="#D8BA72"/>
<path d="M104.015 69.7422H95.8189C95.8189 70.5228 96.0141 71.1082 96.4044 71.6937C96.7947 72.2791 97.185 72.6694 97.868 73.0597C98.4535 73.3524 99.1365 73.5476 99.9171 73.5476C100.503 73.5476 101.088 73.45 101.673 73.2549C102.161 73.0597 102.649 72.6694 103.04 72.2791L103.527 72.8646C103.137 73.3524 102.552 73.7427 101.966 74.0355C101.381 74.3282 100.698 74.4258 99.9171 74.4258C98.9413 74.4258 98.1607 74.2306 97.3801 73.8403C96.5995 73.45 96.0141 72.8646 95.6238 72.084C95.2335 71.4009 95.0383 70.5228 95.0383 69.547C95.0383 68.6688 95.2335 67.7906 95.6238 67.1076C96.0141 66.4246 96.5995 65.8391 97.2826 65.3513C97.9656 64.961 98.7462 64.7658 99.6244 64.7658C100.503 64.7658 101.283 64.961 101.966 65.3513C102.649 65.7416 103.235 66.327 103.625 67.01C104.015 67.6931 104.21 68.5712 104.21 69.4494L104.015 69.7422ZM97.6729 65.9367C97.185 66.2294 96.6971 66.6197 96.4044 67.2052C96.1117 67.7906 95.9165 68.3761 95.8189 69.0591H103.137C103.137 68.3761 102.942 67.7906 102.552 67.2052C102.259 66.7173 101.771 66.2294 101.283 65.9367C100.795 65.644 100.112 65.4488 99.5268 65.4488C98.9414 65.4488 98.2583 65.644 97.6729 65.9367Z" fill="#D8BA72"/>
<path d="M112.895 65.5464H109.187V74.2306H108.309V65.5464H104.601V64.7658H112.895V65.5464Z" fill="#D8BA72"/>
<path d="M114.846 64.7658H115.724V69.0591H122.164V64.7658H123.042V74.2306H122.164V69.8397H115.724V74.2306H114.846V64.7658Z" fill="#D8BA72"/>
<path d="M127.043 64.7658H127.921V72.8646L134.654 64.7658H135.434V74.2306H134.556V66.1319L127.824 74.2306H127.043V64.7658Z" fill="#D8BA72"/>
<path d="M139.435 64.7658H140.313V72.8646L147.046 64.7658H147.827V74.2306H146.948V66.1319L140.216 74.2306H139.435V64.7658ZM141.777 62.7167C141.289 62.3264 141.094 61.741 141.094 61.058H141.777C141.777 61.5458 141.972 61.9361 142.362 62.2289C142.753 62.5216 143.143 62.6192 143.728 62.6192C144.314 62.6192 144.704 62.5216 145.094 62.2289C145.485 61.9361 145.582 61.5458 145.68 61.058H146.363C146.363 61.741 146.07 62.3264 145.68 62.7167C145.192 63.107 144.607 63.3022 143.826 63.3022C142.85 63.3022 142.265 63.107 141.777 62.7167Z" fill="#D8BA72"/>
<path d="M20.3933 118.14C18.2466 116.969 16.5878 115.31 15.4169 113.261C14.246 111.212 13.563 108.87 13.563 106.333C13.563 103.796 14.1484 101.454 15.4169 99.4051C16.5878 97.356 18.2466 95.6972 20.3933 94.5263C22.5399 93.3554 24.8817 92.77 27.5163 92.77C30.1508 92.77 32.4926 93.3554 34.6393 94.5263C36.7859 95.6972 38.4447 97.356 39.6156 99.4051C40.7865 101.454 41.4696 103.796 41.4696 106.333C41.4696 108.87 40.8841 111.212 39.6156 113.261C38.4447 115.31 36.7859 116.969 34.6393 118.14C32.4926 119.31 30.1508 119.896 27.5163 119.896C24.8817 119.896 22.5399 119.31 20.3933 118.14ZM33.5659 116.578C35.4199 115.603 36.7859 114.139 37.8593 112.383C38.9326 110.626 39.4205 108.577 39.4205 106.333C39.4205 104.089 38.9326 102.137 37.8593 100.283C36.7859 98.5269 35.4199 97.0633 33.5659 96.0875C31.712 95.1118 29.7605 94.5263 27.5163 94.5263C25.272 94.5263 23.223 95.0142 21.4666 96.0875C19.6127 97.0633 18.2466 98.5269 17.1733 100.283C16.1 102.04 15.6121 104.089 15.6121 106.333C15.6121 108.577 16.1 110.529 17.1733 112.383C18.2466 114.139 19.6127 115.603 21.4666 116.578C23.3205 117.554 25.272 118.14 27.5163 118.14C29.7605 118.14 31.712 117.554 33.5659 116.578Z" fill="#D8BA72"/>
<path d="M76.4015 92.9651V119.701H74.45V94.7215H56.3985V119.701H54.447V92.9651H76.4015Z" fill="#D8BA72"/>
<path d="M109.87 104.869C111.529 106.235 112.309 108.382 112.309 111.114C112.309 113.944 111.431 116.091 109.675 117.554C107.918 119.018 105.381 119.701 102.161 119.701H91.9159V92.9651H93.8674V102.723H102.649C105.772 102.723 108.211 103.503 109.87 104.869ZM108.211 116.286C109.577 115.115 110.26 113.358 110.26 111.114C110.26 106.626 107.528 104.381 102.161 104.381H93.8674V118.042H102.161C104.893 118.042 106.845 117.457 108.211 116.286ZM117.188 92.9651H119.139V119.701H117.188V92.9651Z" fill="#D8BA72"/>
<path d="M151.339 94.7215H141.679V119.701H139.728V94.7215H130.166V92.9651H151.339V94.7215Z" fill="#D8BA72"/>
<path d="M20.5883 139.41C20.9786 139.801 21.1737 140.386 21.1737 140.972C21.1737 141.752 20.881 142.435 20.2955 142.826C19.7101 143.216 18.8319 143.509 17.7585 143.509H13.6604V133.946H17.4658C18.4416 133.946 19.2222 134.141 19.8076 134.532C20.3931 134.922 20.6858 135.507 20.6858 136.288C20.6858 136.874 20.5882 137.264 20.2955 137.654C20.0028 138.044 19.6125 138.337 19.1246 138.435C19.7101 138.825 20.198 139.02 20.5883 139.41ZM14.3434 138.435H17.4658C18.2464 138.435 18.8319 138.24 19.3198 137.947C19.7101 137.654 20.0028 137.166 20.0028 136.483C20.0028 135.898 19.8076 135.41 19.3198 135.02C18.9295 134.727 18.2464 134.532 17.4658 134.532H14.3434V138.435ZM20.3931 140.972C20.3931 140.289 20.1979 139.801 19.7101 139.508C19.2222 139.215 18.5392 139.02 17.661 139.02H14.2459V143.021H17.661C19.5149 143.021 20.3931 142.338 20.3931 140.972Z" fill="#D8BA72"/>
<path d="M29.858 140.875H24.2962L23.1253 143.607H22.3447L26.7356 134.044H27.4187L31.8096 143.607H31.0289L29.858 140.875ZM29.5653 140.289L27.0283 134.825L24.4914 140.289H29.5653Z" fill="#D8BA72"/>
<path d="M45.2749 134.044V143.607H33.761V134.044H34.444V142.924H39.1276V134.044H39.8106V142.924H44.4943V134.044H45.2749Z" fill="#D8BA72"/>
<path d="M55.325 142.924V143.509H48.7875V133.947H55.1299V134.532H49.4705V138.338H54.5444V138.923H49.4705V142.826H55.325V142.924Z" fill="#D8BA72"/>
<path d="M66.6438 143.607V135.41L62.6432 142.338H62.3505L58.3499 135.508V143.607H57.6669V134.044H58.2523L62.5456 141.46L66.839 134.044H67.4244V143.607H66.6438Z" fill="#D8BA72"/>
<path d="M77.9625 134.044L73.5716 142.241C73.2789 142.729 72.9862 143.119 72.5959 143.412C72.2056 143.704 71.8153 143.802 71.3274 143.802C71.0347 143.802 70.6444 143.704 70.2541 143.509L70.4492 142.924C70.7419 143.021 71.0347 143.119 71.3274 143.119C72.0104 143.119 72.4983 142.729 72.8886 142.046L73.1813 141.46L69.2783 134.044H70.0589L73.5716 140.875L77.1819 134.044H77.9625Z" fill="#D8BA72"/>
<path d="M83.4268 134.044H90.257V134.63H84.1098V138.045H87.3298C88.4031 138.045 89.2813 138.24 89.8667 138.728C90.4522 139.216 90.7449 139.801 90.7449 140.777C90.7449 141.655 90.4522 142.338 89.8667 142.826C89.2813 143.314 88.3055 143.509 87.1346 143.509H83.4268V134.044ZM87.1346 143.021C88.1104 143.021 88.7934 142.826 89.2813 142.436C89.7692 142.046 90.0619 141.558 90.0619 140.777C90.0619 139.313 89.0861 138.63 87.1346 138.63H84.1098V142.924H87.1346V143.021Z" fill="#D8BA72"/>
<path d="M93.282 134.044H93.965V142.436L100.503 134.044H101.088V143.607H100.405V135.215L93.8674 143.607H93.282V134.044Z" fill="#D8BA72"/>
<path d="M109.87 139.411C110.26 139.801 110.455 140.289 110.455 140.875C110.455 141.46 110.26 141.948 109.967 142.338C109.675 142.729 109.187 143.119 108.601 143.314C108.016 143.509 107.43 143.607 106.845 143.607C106.259 143.607 105.576 143.509 104.991 143.314C104.405 143.119 103.82 142.729 103.332 142.338L103.625 141.85C104.015 142.241 104.503 142.533 105.088 142.729C105.674 142.924 106.162 143.021 106.747 143.021C107.235 143.021 107.821 142.924 108.211 142.729C108.699 142.533 109.089 142.338 109.284 141.948C109.577 141.655 109.675 141.265 109.675 140.777C109.675 140.192 109.479 139.704 108.992 139.411C108.504 139.118 107.821 138.923 107.04 138.923H105.088V138.338H107.04C107.723 138.338 108.308 138.143 108.699 137.85C109.089 137.557 109.284 137.069 109.284 136.581C109.284 135.996 108.992 135.508 108.504 135.118C108.016 134.727 107.333 134.532 106.552 134.532C106.064 134.532 105.576 134.63 105.186 134.727C104.698 134.825 104.308 135.118 103.82 135.313L103.527 134.727C104.015 134.435 104.503 134.24 104.991 134.044C105.479 133.947 105.967 133.849 106.552 133.849C107.138 133.849 107.723 133.947 108.211 134.142C108.699 134.337 109.089 134.63 109.479 135.02C109.772 135.41 109.967 135.898 109.967 136.386C109.967 136.874 109.772 137.362 109.479 137.752C109.187 138.143 108.796 138.435 108.211 138.533C108.992 138.728 109.479 139.021 109.87 139.411Z" fill="#D8BA72"/>
<path d="M120.896 134.044V143.607H120.213V139.021H113.87V143.607H113.187V134.044H113.87V138.435H120.213V134.044H120.896Z" fill="#D8BA72"/>
<path d="M130.946 142.924V143.509H124.311V133.947H130.653V134.532H124.994V138.338H130.068V138.923H124.994V142.826H130.946V142.924Z" fill="#D8BA72"/>
<path d="M134.751 143.021C133.971 142.631 133.385 142.046 132.995 141.265C132.605 140.484 132.312 139.704 132.312 138.826C132.312 137.947 132.507 137.069 132.995 136.386C133.385 135.606 133.971 135.118 134.751 134.63C135.532 134.24 136.313 134.044 137.288 134.044C137.971 134.044 138.654 134.142 139.24 134.337C139.825 134.532 140.313 134.923 140.703 135.313L140.313 135.801C139.533 135.02 138.557 134.63 137.386 134.63C136.605 134.63 135.825 134.825 135.239 135.215C134.556 135.606 134.068 136.093 133.678 136.679C133.288 137.362 133.093 138.045 133.093 138.826C133.093 139.606 133.288 140.289 133.678 140.972C134.068 141.655 134.556 142.143 135.239 142.436C135.922 142.826 136.605 143.021 137.386 143.021C138.557 143.021 139.533 142.631 140.313 141.85L140.703 142.338C140.313 142.729 139.825 143.119 139.24 143.314C138.654 143.509 137.971 143.607 137.386 143.607C136.313 143.607 135.532 143.412 134.751 143.021Z" fill="#D8BA72"/>
<path d="M149.876 134.044L145.485 142.241C145.192 142.729 144.899 143.119 144.509 143.412C144.119 143.704 143.728 143.802 143.24 143.802C142.948 143.802 142.557 143.704 142.167 143.509L142.362 142.924C142.655 143.021 142.948 143.119 143.24 143.119C143.924 143.119 144.411 142.729 144.802 142.046L145.094 141.46L141.191 134.044H141.972L145.485 140.875L149.095 134.044H149.876Z" fill="#D8BA72"/>
<path d="M45.4701 69.7422C44.4944 70.4252 43.5186 70.9131 42.4453 71.2058C41.3719 71.4986 40.4938 71.6937 39.518 71.6937C38.4447 71.6937 37.4689 71.4986 36.5907 71.2058C35.7126 70.9131 34.8344 70.3276 34.1514 69.6446C33.4683 68.9616 32.8829 68.181 32.4926 67.2052C32.1023 66.2295 31.9071 65.1561 31.9071 63.9852C31.9071 62.7167 32.1023 61.5459 32.5901 60.3749C33.078 59.204 33.6635 58.3259 34.3465 57.5453C35.0295 56.7647 36.0053 56.1792 37.0786 55.6913C38.1519 55.2034 39.3229 55.0083 40.5913 55.0083C42.1525 55.0083 43.421 55.301 44.4944 55.9841C45.5677 56.6671 46.4458 57.4477 47.1289 58.4234C47.8119 59.3992 48.2998 60.5701 48.5925 61.8386C48.8852 63.1071 49.0804 64.3755 49.0804 65.7416C49.0804 68.3761 48.6901 70.6203 48.007 72.767C47.324 74.9137 46.2507 76.67 44.8847 78.1337C43.5186 79.5973 41.8598 80.8658 40.0059 81.8415C38.1519 82.8173 36.0053 83.4027 33.7611 83.6955L33.3707 82.2318C37.0786 81.4512 39.8107 80.0852 41.7622 78.0361C43.7137 75.987 44.9822 73.2549 45.4701 69.7422ZM45.5677 68.2786C45.5677 68.2786 45.5677 68.181 45.5677 67.8882V66.8149C45.5677 66.2295 45.5677 65.4489 45.4701 64.7658C45.3725 64.0828 45.2749 63.3022 45.1774 62.5216C45.0798 61.741 44.7871 61.058 44.5919 60.3749C44.3968 59.6919 44.0065 59.0089 43.5186 58.521C43.0307 58.0331 42.5428 57.5452 41.9574 57.2525C41.3719 56.9598 40.6889 56.7646 39.8107 56.7646C39.0301 56.7646 38.4447 56.9598 37.8592 57.2525C37.2738 57.5452 36.8835 57.9356 36.4932 58.4234C36.1029 58.9113 35.8101 59.5943 35.7126 60.2774C35.615 60.9604 35.4198 61.741 35.4198 62.6192C35.4198 63.5949 35.5174 64.4731 35.7126 65.2537C35.9077 66.0343 36.298 66.7174 36.6883 67.3028C37.0786 67.8883 37.6641 68.3761 38.4447 68.6689C39.2253 68.9616 40.0059 69.1567 40.8841 69.1567C41.3719 69.1567 41.9574 69.0591 42.738 68.9616C43.5186 68.864 44.5919 68.5713 45.5677 68.2786Z" fill="#D8BA72"/>
<path opacity="0.5" d="M160 160H0V0H160V160ZM5.67711 154.323H154.323V5.67711H5.67711V154.323Z" fill="#D8BA72"/>
</svg>
