<svg width="226" height="226" viewBox="0 0 226 226" fill="none" xmlns="http://www.w3.org/2000/svg">
<path d="M28.1162 60.4711C25.3597 58.955 23.1545 56.7498 21.6384 54.1311C19.9845 51.3746 19.2954 48.3424 19.2954 45.0346C19.2954 41.7268 20.1223 38.6947 21.6384 35.9382C23.1545 33.1816 25.3597 31.1143 28.1162 29.5982C30.8727 28.0821 34.0427 27.2552 37.4883 27.2552C40.9339 27.2552 43.9661 28.0821 46.8605 29.5982C49.617 31.1143 51.8221 33.3195 53.3382 35.9382C54.9921 38.6947 55.6813 41.7268 55.6813 45.0346C55.6813 48.3424 54.8543 51.5124 53.3382 54.1311C51.8221 56.8876 49.617 58.955 46.8605 60.4711C44.104 61.9871 40.9339 62.8141 37.4883 62.8141C34.0427 62.8141 30.8727 61.9871 28.1162 60.4711ZM45.3444 58.4037C47.6874 57.0254 49.617 55.2337 50.9952 52.8907C52.3735 50.5476 53.0626 47.9289 53.0626 45.0346C53.0626 42.1403 52.3735 39.5216 50.9952 37.1786C49.617 34.8355 47.8252 33.0438 45.3444 31.6656C43.0013 30.2873 40.3827 29.5982 37.3505 29.5982C34.4562 29.5982 31.6997 30.2873 29.3566 31.6656C27.0136 33.0438 25.084 34.8355 23.7058 37.1786C22.3275 39.5216 21.6384 42.1403 21.6384 45.0346C21.6384 47.9289 22.3275 50.5476 23.7058 52.8907C25.084 55.2337 27.0136 57.0254 29.3566 58.4037C31.6997 59.7819 34.4562 60.4711 37.3505 60.4711C40.3827 60.4711 43.0013 59.7819 45.3444 58.4037Z" fill="#D8BA72"/>
<path d="M86.5547 29.736H73.8748V62.5384H71.2561V29.736H58.5762V27.393H86.4168V29.736H86.5547Z" fill="#D8BA72"/>
<path d="M122.802 60.1954V70.5323H120.321V62.5384H88.2079V70.5323H85.7271V60.1954H87.6566C89.9997 60.0576 91.5157 58.128 92.4805 54.4067C93.4453 50.6855 93.9966 45.5859 94.1344 38.9703L94.5479 27.393H117.289V60.1954H122.802ZM95.237 53.1663C94.5479 56.7498 93.4453 59.0928 91.7914 60.3332H114.808V29.8738H96.8909L96.6153 39.246C96.4775 44.8968 95.9262 49.445 95.237 53.1663Z" fill="#D8BA72"/>
<path d="M153.261 52.615H132.863L128.453 62.5384H125.696L141.822 27.5308H144.441L160.566 62.5384H157.81L153.261 52.615ZM152.297 50.5476L143.062 30.2873L133.966 50.5476H152.297Z" fill="#D8BA72"/>
<path d="M204.119 29.4604C206.738 30.9764 208.805 33.1816 210.322 35.8003C211.838 38.5568 212.527 41.589 212.527 44.8968C212.527 48.2046 211.838 51.3746 210.322 53.9933C208.805 56.7498 206.738 58.8171 204.119 60.3332C201.501 61.8493 198.606 62.6763 195.299 62.6763C192.129 62.6763 189.234 61.9871 186.753 60.4711C184.135 58.955 182.067 57.0254 180.551 54.4067C179.035 51.7881 178.208 48.8937 178.07 45.7237H170.214V62.4006H167.596V27.393H170.214V43.5185H178.07C178.208 40.3486 179.173 37.592 180.689 35.1112C182.205 32.6303 184.273 30.7008 186.891 29.3225C189.372 27.9443 192.266 27.2552 195.299 27.2552C198.606 27.2552 201.501 27.9443 204.119 29.4604ZM202.879 58.4037C205.084 57.0254 206.876 55.2337 208.116 52.8907C209.357 50.5476 210.046 47.9289 210.046 45.0346C210.046 42.1403 209.357 39.5216 208.116 37.1786C206.876 34.8355 205.084 33.0438 202.879 31.6656C200.674 30.2873 198.193 29.5982 195.436 29.5982C192.68 29.5982 190.199 30.2873 187.994 31.6656C185.789 33.0438 183.997 34.8355 182.756 37.1786C181.516 39.5216 180.827 42.1403 180.827 45.0346C180.827 47.9289 181.516 50.5476 182.756 52.8907C183.997 55.2337 185.789 57.0254 187.994 58.4037C190.199 59.7819 192.68 60.4711 195.436 60.4711C198.055 60.4711 200.536 59.7819 202.879 58.4037Z" fill="#D8BA72"/>
<path d="M21.5 87.8983C21.5 86.52 21.5 85.1418 21.5 84.0392C21.5 82.9366 21.3622 81.834 21.3622 80.7313C22.8782 79.7666 24.2565 79.0775 25.7725 78.5262C27.2886 77.9749 28.9425 77.6992 30.7343 77.6992C32.1125 77.6992 33.3529 77.837 34.7312 78.2505C35.9716 78.664 37.212 79.2153 38.1768 79.9044C39.1416 80.7314 39.9686 81.5583 40.6577 82.6609C41.209 83.7635 41.6224 85.1418 41.6224 86.52C41.6224 88.0361 41.3468 89.2765 40.9333 90.517C40.382 91.7574 39.8307 92.86 39.0038 93.9626C38.1768 95.0652 37.212 96.1678 36.1094 97.1326C35.0068 98.0974 33.9042 99.1999 32.6638 100.303L24.67 107.607L37.2121 107.332C37.6255 107.332 38.1768 107.332 38.4525 107.194C38.866 107.056 39.1416 106.918 39.5551 106.643C39.9685 106.367 40.2442 105.953 40.6577 105.402C41.0712 104.851 41.3468 104.024 41.7603 103.059L43.2764 103.473C43.1385 104.024 43.0007 104.713 42.8629 105.402C42.7251 106.091 42.5872 106.78 42.4494 107.469C42.3116 108.159 42.1738 108.848 42.1738 109.537C42.036 110.226 42.0359 110.777 42.0359 111.191H36.3851C34.869 111.191 33.6286 111.191 32.6638 111.191C31.699 111.191 30.8721 111.191 30.183 111.191H26.0482C25.2213 111.191 24.3943 111.191 23.7052 111.191C22.8782 111.191 22.1891 111.191 21.3622 111.191H19.8461L19.4326 110.364L28.529 101.543C29.6317 100.44 30.7343 99.3378 31.6991 98.2352C32.6638 97.1326 33.6286 96.03 34.3177 94.9274C35.1447 93.8248 35.696 92.7222 36.1094 91.4817C36.5229 90.3791 36.7986 89.1387 36.7986 87.8983C36.7986 86.9335 36.6607 85.9687 36.2473 85.1418C35.8338 84.3148 35.4203 83.4879 34.7312 82.9366C34.0421 82.3853 33.353 81.834 32.526 81.5583C31.6991 81.2827 30.7343 81.007 29.9073 81.007C28.9425 81.007 27.9778 81.1448 27.2886 81.5583C26.4617 81.9718 25.7726 82.3853 25.2213 83.0744C24.67 83.6257 24.2565 84.4527 23.843 85.2796C23.5673 86.1066 23.2917 87.0713 23.2917 88.1739L21.5 87.8983Z" fill="#D8BA72"/>
<path d="M73.3237 97.4082H79.9394V98.5108H73.3237V97.4082Z" fill="#D8BA72"/>
<path d="M92.6191 92.5843H87.3817V104.851H86.0035V92.5843H80.7661V91.4817H92.4813V92.5843H92.6191Z" fill="#D8BA72"/>
<path d="M95.3755 91.4817H96.6159V102.921L106.126 91.4817H107.228V104.851H105.988V93.4113L96.4781 104.851H95.3755V91.4817Z" fill="#D8BA72"/>
<path d="M129.97 91.4818V104.851H128.729V92.5844H121.7L121.563 96.1678C121.425 97.9596 121.287 99.6135 121.149 100.854C121.011 102.094 120.598 103.059 120.046 103.886C119.495 104.713 118.806 104.989 117.979 104.989C117.703 104.989 117.29 104.989 116.876 104.851L117.014 103.748C117.29 103.748 117.428 103.886 117.566 103.886C118.255 103.886 118.806 103.473 119.22 102.783C119.633 102.094 119.909 101.267 120.046 100.165C120.184 99.0622 120.322 97.8217 120.322 96.03L120.598 91.344H129.97V91.4818Z" fill="#D8BA72"/>
<path d="M146.923 98.5108H135.345C135.345 99.6134 135.621 100.44 136.172 101.267C136.724 102.094 137.275 102.646 138.24 103.197C139.067 103.61 140.031 103.886 141.134 103.886C141.961 103.886 142.788 103.748 143.615 103.472C144.304 103.197 144.993 102.646 145.544 102.094L146.233 102.921C145.682 103.61 144.855 104.162 144.028 104.575C143.201 104.989 142.237 105.126 141.134 105.126C139.756 105.126 138.653 104.851 137.55 104.299C136.448 103.748 135.621 102.921 135.07 101.819C134.518 100.854 134.243 99.6134 134.243 98.2351C134.243 96.9947 134.518 95.7543 135.07 94.7895C135.621 93.8247 136.448 92.9978 137.413 92.3087C138.377 91.7574 139.48 91.4817 140.72 91.4817C141.961 91.4817 143.063 91.7574 144.028 92.3087C144.993 92.86 145.82 93.6869 146.371 94.6517C146.923 95.6165 147.198 96.8569 147.198 98.0973L146.923 98.5108ZM137.964 93.1356C137.275 93.5491 136.586 94.1004 136.172 94.9274C135.759 95.7543 135.483 96.5812 135.345 97.546H145.682C145.682 96.5812 145.407 95.7543 144.855 94.9274C144.442 94.2382 143.753 93.5491 143.063 93.1356C142.374 92.7221 141.41 92.4465 140.583 92.4465C139.756 92.4465 138.791 92.7221 137.964 93.1356Z" fill="#D8BA72"/>
<path d="M159.464 92.5843H154.227V104.851H152.986V92.5843H147.749V91.4817H159.464V92.5843Z" fill="#D8BA72"/>
<path d="M162.221 91.4817H163.461V97.546H172.558V91.4817H173.798V104.851H172.558V98.6486H163.461V104.851H162.221V91.4817Z" fill="#D8BA72"/>
<path d="M179.449 91.4817H180.69V102.921L190.2 91.4817H191.302V104.851H190.062V93.4113L180.552 104.851H179.449V91.4817Z" fill="#D8BA72"/>
<path d="M196.953 91.4818H198.193V102.921L207.703 91.4818H208.806V104.851H207.565V93.4113L198.055 104.851H196.953V91.4818ZM200.26 88.5874C199.571 88.0361 199.296 87.2092 199.296 86.2444H200.26C200.26 86.9335 200.536 87.4848 201.087 87.8983C201.639 88.3118 202.19 88.4496 203.017 88.4496C203.844 88.4496 204.395 88.3118 204.946 87.8983C205.498 87.4848 205.636 86.9335 205.773 86.2444H206.738C206.738 87.2092 206.325 88.0361 205.773 88.5874C205.084 89.1387 204.257 89.4144 203.155 89.4144C201.777 89.4144 200.95 89.1387 200.26 88.5874Z" fill="#D8BA72"/>
<path d="M28.8055 166.872C25.7733 165.218 23.4303 162.875 21.7764 159.981C20.1225 157.087 19.1577 153.779 19.1577 150.195C19.1577 146.612 19.9847 143.304 21.7764 140.41C23.4303 137.515 25.7733 135.172 28.8055 133.518C31.8376 131.865 35.1454 131.038 38.8667 131.038C42.588 131.038 45.8958 131.865 48.928 133.518C51.9601 135.172 54.3032 137.515 55.9571 140.41C57.611 143.304 58.5757 146.612 58.5757 150.195C58.5757 153.779 57.7488 157.087 55.9571 159.981C54.3032 162.875 51.9601 165.218 48.928 166.872C45.8958 168.526 42.588 169.353 38.8667 169.353C35.1454 169.353 31.8376 168.526 28.8055 166.872ZM47.4119 164.667C50.0306 163.289 51.9601 161.221 53.4762 158.74C54.9923 156.26 55.6814 153.365 55.6814 150.195C55.6814 147.025 54.9923 144.269 53.4762 141.65C51.9601 139.169 50.0306 137.102 47.4119 135.724C44.7932 134.345 42.0367 133.518 38.8667 133.518C35.6967 133.518 32.8024 134.208 30.3216 135.724C27.7029 137.102 25.7733 139.169 24.2573 141.65C22.7412 144.131 22.0521 147.025 22.0521 150.195C22.0521 153.365 22.7412 156.122 24.2573 158.74C25.7733 161.221 27.7029 163.289 30.3216 164.667C32.9402 166.045 35.6967 166.872 38.8667 166.872C42.0367 166.872 44.7932 166.045 47.4119 164.667Z" fill="#D8BA72"/>
<path d="M107.917 131.313V169.077H105.161V133.794H79.6632V169.077H76.9067V131.313H107.917Z" fill="#D8BA72"/>
<path d="M155.191 148.128C157.534 150.058 158.637 153.09 158.637 156.949C158.637 160.946 157.397 163.978 154.916 166.045C152.435 168.113 148.851 169.077 144.303 169.077H129.832V131.313H132.588V145.096H144.992C149.403 145.096 152.848 146.198 155.191 148.128ZM152.848 164.253C154.778 162.6 155.743 160.119 155.743 156.949C155.743 150.609 151.884 147.439 144.303 147.439H132.588V166.734H144.303C148.162 166.734 150.919 165.907 152.848 164.253ZM165.528 131.313H168.285V169.077H165.528V131.313Z" fill="#D8BA72"/>
<path d="M213.767 133.794H200.122V169.077H197.366V133.794H183.859V131.313H213.767V133.794Z" fill="#D8BA72"/>
<path d="M29.081 196.918C29.6323 197.469 29.9079 198.296 29.9079 199.123C29.9079 200.226 29.4945 201.191 28.6675 201.742C27.8406 202.293 26.6001 202.707 25.084 202.707H19.2954V189.2H24.6706C26.0488 189.2 27.1514 189.475 27.9784 190.027C28.8053 190.578 29.2188 191.405 29.2188 192.508C29.2188 193.334 29.081 193.886 28.6675 194.437C28.254 194.988 27.7028 195.402 27.0136 195.54C27.8406 196.091 28.5297 196.367 29.081 196.918ZM20.2602 195.54H24.6706C25.7732 195.54 26.6001 195.264 27.2893 194.851C27.8406 194.437 28.2541 193.748 28.2541 192.783C28.2541 191.956 27.9784 191.267 27.2893 190.716C26.738 190.302 25.7732 190.027 24.6706 190.027H20.2602V195.54ZM28.8053 199.123C28.8053 198.158 28.5297 197.469 27.8405 197.056C27.1514 196.642 26.1867 196.367 24.9463 196.367H20.1224V202.017H24.9463C27.5649 202.017 28.8053 201.053 28.8053 199.123Z" fill="#D8BA72"/>
<path d="M42.1746 198.986H34.3185L32.6646 202.845H31.562L37.7641 189.338H38.7289L44.9311 202.845H43.8284L42.1746 198.986ZM41.7611 198.159L38.1776 190.44L34.5942 198.159H41.7611Z" fill="#D8BA72"/>
<path d="M63.9513 189.338V202.845H47.688V189.338H48.6527V201.88H55.2684V189.338H56.2331V201.88H62.8488V189.338H63.9513Z" fill="#D8BA72"/>
<path d="M78.1464 201.88V202.707H68.9121V189.2H77.8708V190.027H69.8769V195.402H77.0438V196.229H69.8769V201.742H78.1464V201.88Z" fill="#D8BA72"/>
<path d="M94.1345 202.845V191.267L88.4836 201.053H88.0702L82.4193 191.405V202.845H81.4546V189.338H82.2815L88.3459 199.812L94.4102 189.338H95.2371V202.845H94.1345Z" fill="#D8BA72"/>
<path d="M110.123 189.338L103.921 200.915C103.507 201.604 103.094 202.156 102.542 202.569C101.991 202.982 101.44 203.12 100.751 203.12C100.337 203.12 99.786 202.982 99.2347 202.707L99.5103 201.88C99.9238 202.018 100.337 202.156 100.751 202.156C101.716 202.156 102.405 201.604 102.956 200.639L103.369 199.812L97.8564 189.338H98.959L103.921 198.986L109.02 189.338H110.123Z" fill="#D8BA72"/>
<path d="M117.841 189.338H127.489V190.165H118.806V194.989H123.354C124.87 194.989 126.11 195.264 126.937 195.953C127.764 196.642 128.178 197.469 128.178 198.848C128.178 200.088 127.764 201.053 126.937 201.742C126.11 202.431 124.732 202.707 123.078 202.707H117.841V189.338ZM123.078 202.018C124.456 202.018 125.421 201.742 126.11 201.191C126.799 200.639 127.213 199.95 127.213 198.848C127.213 196.78 125.835 195.816 123.078 195.816H118.806V201.88H123.078V202.018Z" fill="#D8BA72"/>
<path d="M131.761 189.338H132.726V201.191L141.96 189.338H142.787V202.845H141.822V190.992L132.588 202.845H131.761V189.338Z" fill="#D8BA72"/>
<path d="M155.191 196.918C155.743 197.469 156.018 198.159 156.018 198.986C156.018 199.812 155.743 200.502 155.329 201.053C154.916 201.604 154.227 202.155 153.4 202.431C152.573 202.707 151.746 202.845 150.919 202.845C150.092 202.845 149.127 202.707 148.3 202.431C147.473 202.155 146.646 201.604 145.957 201.053L146.37 200.364C146.922 200.915 147.611 201.329 148.438 201.604C149.265 201.88 149.954 202.018 150.781 202.018C151.47 202.018 152.297 201.88 152.848 201.604C153.537 201.329 154.089 201.053 154.364 200.502C154.778 200.088 154.916 199.537 154.916 198.848C154.916 198.021 154.64 197.332 153.951 196.918C153.262 196.505 152.297 196.229 151.194 196.229H148.438V195.402H151.194C152.159 195.402 152.986 195.126 153.537 194.713C154.089 194.299 154.364 193.61 154.364 192.921C154.364 192.094 153.951 191.405 153.262 190.854C152.573 190.303 151.608 190.027 150.505 190.027C149.816 190.027 149.127 190.165 148.576 190.302C147.887 190.44 147.335 190.854 146.646 191.129L146.233 190.302C146.922 189.889 147.611 189.613 148.3 189.338C148.989 189.2 149.678 189.062 150.505 189.062C151.332 189.062 152.159 189.2 152.848 189.476C153.537 189.751 154.089 190.165 154.64 190.716C155.053 191.267 155.329 191.956 155.329 192.646C155.329 193.335 155.053 194.024 154.64 194.575C154.227 195.126 153.675 195.54 152.848 195.678C153.951 195.953 154.64 196.367 155.191 196.918Z" fill="#D8BA72"/>
<path d="M170.766 189.338V202.845H169.801V196.367H160.842V202.845H159.877V189.338H160.842V195.54H169.801V189.338H170.766Z" fill="#D8BA72"/>
<path d="M184.961 201.88V202.707H175.589V189.2H184.548V190.027H176.554V195.402H183.721V196.229H176.554V201.742H184.961V201.88Z" fill="#D8BA72"/>
<path d="M190.337 202.018C189.234 201.466 188.407 200.639 187.856 199.537C187.305 198.434 186.891 197.332 186.891 196.091C186.891 194.851 187.167 193.61 187.856 192.646C188.407 191.543 189.234 190.854 190.337 190.165C191.439 189.613 192.542 189.338 193.92 189.338C194.885 189.338 195.85 189.476 196.677 189.751C197.504 190.027 198.193 190.578 198.744 191.129L198.193 191.819C197.09 190.716 195.712 190.165 194.058 190.165C192.955 190.165 191.853 190.44 191.026 190.992C190.061 191.543 189.372 192.232 188.821 193.059C188.269 194.024 187.994 194.989 187.994 196.091C187.994 197.194 188.269 198.159 188.821 199.123C189.372 200.088 190.061 200.777 191.026 201.191C191.991 201.742 192.955 202.018 194.058 202.018C195.712 202.018 197.09 201.466 198.193 200.364L198.744 201.053C198.193 201.604 197.504 202.156 196.677 202.431C195.85 202.707 194.885 202.845 194.058 202.845C192.542 202.845 191.439 202.569 190.337 202.018Z" fill="#D8BA72"/>
<path d="M211.7 189.338L205.497 200.915C205.084 201.604 204.67 202.156 204.119 202.569C203.568 202.982 203.017 203.12 202.327 203.12C201.914 203.12 201.363 202.982 200.811 202.707L201.087 201.88C201.501 202.018 201.914 202.156 202.327 202.156C203.292 202.156 203.981 201.604 204.533 200.639L204.946 199.812L199.433 189.338H200.536L205.497 198.986L210.597 189.338H211.7Z" fill="#D8BA72"/>
<path d="M64.2266 98.5108C62.8483 99.4756 61.4701 100.165 59.954 100.578C58.4379 100.992 57.1975 101.267 55.8192 101.267C54.3032 101.267 52.9249 100.992 51.6845 100.578C50.4441 100.165 49.2036 99.3378 48.2389 98.373C47.2741 97.4082 46.4471 96.3056 45.8958 94.9274C45.3445 93.5491 45.0688 92.033 45.0688 90.3791C45.0688 88.5874 45.3445 86.9335 46.0336 85.2796C46.7228 83.6257 47.5497 82.3853 48.5145 81.2827C49.4793 80.1801 50.8575 79.3531 52.3736 78.664C53.8897 77.9748 55.5436 77.6992 57.3353 77.6992C59.5405 77.6992 61.3323 78.1127 62.8483 79.0775C64.3644 80.0422 65.6048 81.1449 66.5696 82.5231C67.5344 83.9014 68.2235 85.5553 68.637 87.347C69.0505 89.1387 69.3261 90.9304 69.3261 92.86C69.3261 96.5813 68.7748 99.7512 67.81 102.783C66.8452 105.816 65.3292 108.296 63.3996 110.364C61.4701 112.431 59.127 114.223 56.5084 115.601C53.8897 116.979 50.8575 117.806 47.6876 118.22L47.1362 116.152C52.3736 115.05 56.2327 113.12 58.9892 110.226C61.7457 107.332 63.5375 103.473 64.2266 98.5108ZM64.3644 96.4435C64.3644 96.4435 64.3644 96.3056 64.3644 95.8921V94.3761C64.3644 93.5491 64.3644 92.4465 64.2266 91.4817C64.0888 90.517 63.9509 89.4143 63.8131 88.3117C63.6753 87.2091 63.2618 86.2444 62.9861 85.2796C62.7105 84.3148 62.1592 83.3501 61.4701 82.6609C60.781 81.9718 60.0918 81.2827 59.2649 80.8692C58.4379 80.4557 57.4731 80.1801 56.2327 80.1801C55.1301 80.1801 54.3031 80.4557 53.4762 80.8692C52.6492 81.2827 52.098 81.834 51.5467 82.5231C50.9954 83.2122 50.5819 84.177 50.4441 85.1418C50.3062 86.1066 50.0306 87.2091 50.0306 88.4496C50.0306 89.8278 50.1684 91.0683 50.4441 92.1709C50.7197 93.2735 51.271 94.2383 51.8223 95.0652C52.3736 95.8922 53.2006 96.5813 54.3032 96.9948C55.4058 97.4082 56.5084 97.6839 57.7488 97.6839C58.4379 97.6839 59.2649 97.546 60.3675 97.4082C61.4701 97.2704 62.9861 96.8569 64.3644 96.4435Z" fill="#D8BA72"/>
<path opacity="0.5" d="M226 226H0V0H226V226ZM8.01892 217.981H217.981V8.01892H8.01892V217.981Z" fill="#D8BA72"/>
</svg>
