<svg width="1681" height="1019" viewBox="0 0 1681 1019" fill="none" xmlns="http://www.w3.org/2000/svg">
<path d="M384.107 641.663L506.117 750.636L522.081 524.503L384.107 641.663Z" stroke="#D8BA71" stroke-opacity="0.3" stroke-miterlimit="10"/>
<path d="M522.081 524.503L814.22 717.162L506.117 750.636L522.081 524.503Z" stroke="#D8BA71" stroke-opacity="0.3" stroke-miterlimit="10"/>
<path d="M384.107 641.663L225.152 582.719L522.081 524.503L384.107 641.663Z" stroke="#D8BA71" stroke-opacity="0.3" stroke-miterlimit="10"/>
<path d="M522.081 524.503L499.275 409.162L225.152 582.719L522.081 524.503Z" stroke="#D8BA71" stroke-opacity="0.3" stroke-miterlimit="10"/>
<path d="M522.081 524.503L633.6 474.656L499.275 409.162L522.081 524.503Z" stroke="#D8BA71" stroke-opacity="0.3" stroke-miterlimit="10"/>
<path d="M633.6 474.656L597.339 320.201L499.275 409.163L633.6 474.656Z" stroke="#D8BA71" stroke-opacity="0.3" stroke-miterlimit="10"/>
<path d="M499.275 409.162L349.671 228.147L597.339 320.201L499.275 409.162Z" stroke="#D8BA71" stroke-opacity="0.3" stroke-miterlimit="10"/>
<path d="M506.117 750.636L597.567 841.235L814.22 717.162L506.117 750.636Z" stroke="#D8BA71" stroke-opacity="0.3" stroke-miterlimit="10"/>
<path d="M506.117 750.636L300.183 811.763L597.567 841.235L506.117 750.636Z" stroke="#D8BA71" stroke-opacity="0.3" stroke-miterlimit="10"/>
<path d="M300.183 811.763L384.107 641.663L506.117 750.636L300.183 811.763Z" stroke="#D8BA71" stroke-opacity="0.3" stroke-miterlimit="10"/>
<path d="M300.183 811.763L466.435 1017.34L597.567 841.235L300.183 811.763Z" stroke="#D8BA71" stroke-opacity="0.3" stroke-miterlimit="10"/>
<path d="M202.803 775.56L300.183 811.763L384.107 641.663L202.803 775.56Z" stroke="#D8BA71" stroke-opacity="0.3" stroke-miterlimit="10"/>
<path d="M225.152 582.719L384.107 641.663L202.803 775.56L225.152 582.719Z" stroke="#D8BA71" stroke-opacity="0.3" stroke-miterlimit="10"/>
<path d="M202.803 775.56L109.3 640.207L225.152 582.719L202.803 775.56Z" stroke="#D8BA71" stroke-opacity="0.3" stroke-miterlimit="10"/>
<path d="M129.369 530.507L225.152 582.719L109.3 640.207L129.369 530.507Z" stroke="#D8BA71" stroke-opacity="0.3" stroke-miterlimit="10"/>
<path d="M1.42973 590.724L109.3 640.207L129.369 530.507L1.42973 590.724Z" stroke="#D8BA71" stroke-opacity="0.3" stroke-miterlimit="10"/>
<path d="M202.803 775.56L77.3723 889.263L300.183 811.763L202.803 775.56Z" stroke="#D8BA71" stroke-opacity="0.3" stroke-miterlimit="10"/>
<path d="M597.567 841.235L807.606 817.039L814.22 717.162L597.567 841.235Z" stroke="#D8BA71" stroke-opacity="0.3" stroke-miterlimit="10"/>
<path d="M225.152 582.719L349.671 228.147L499.275 409.163L225.152 582.719Z" stroke="#D8BA71" stroke-opacity="0.3" stroke-miterlimit="10"/>
<path d="M522.081 524.503L633.6 474.656L814.22 717.162L522.081 524.503Z" stroke="#D8BA71" stroke-opacity="0.3" stroke-miterlimit="10"/>
<path d="M633.6 474.655L809.887 265.624L597.339 320.201L633.6 474.655Z" stroke="#D8BA71" stroke-opacity="0.3" stroke-miterlimit="10"/>
<path d="M129.369 530.507L349.671 228.147L225.152 582.719L129.369 530.507Z" stroke="#D8BA71" stroke-opacity="0.3" stroke-miterlimit="10"/>
<path d="M814.22 717.162L1001.45 624.926L807.606 817.038L814.22 717.162Z" stroke="#D8BA71" stroke-opacity="0.3" stroke-miterlimit="10"/>
<path d="M633.6 474.656L1001.45 624.926L814.22 717.162L633.6 474.656Z" stroke="#D8BA71" stroke-opacity="0.3" stroke-miterlimit="10"/>
<path d="M1001.45 624.926L809.887 265.624L633.6 474.656L1001.45 624.926Z" stroke="#D8BA71" stroke-opacity="0.3" stroke-miterlimit="10"/>
<path d="M349.671 228.147L537.588 164.473L597.339 320.201L349.671 228.147Z" stroke="#D8BA71" stroke-opacity="0.3" stroke-miterlimit="10"/>
<path d="M349.671 228.147L286.271 120.447L537.588 164.473L349.671 228.147Z" stroke="#D8BA71" stroke-opacity="0.3" stroke-miterlimit="10"/>
<path d="M597.567 841.235L685.596 914.55L807.606 817.039L597.567 841.235Z" stroke="#D8BA71" stroke-opacity="0.3" stroke-miterlimit="10"/>
<path d="M126.404 270.717L349.671 228.147L286.271 120.447" stroke="#D8BA71" stroke-opacity="0.3" stroke-miterlimit="10"/>
<path d="M126.404 270.717L129.369 530.507L349.671 228.147L126.404 270.717Z" stroke="#D8BA71" stroke-opacity="0.3" stroke-miterlimit="10"/>
<path d="M1252.77 475.747L1221.07 331.844L1058.01 517.408L1252.77 475.747Z" stroke="#D8BA71" stroke-opacity="0.3" stroke-miterlimit="10"/>
<path d="M1058.01 517.408L937.142 230.694L1221.07 331.844L1058.01 517.408Z" stroke="#D8BA71" stroke-opacity="0.3" stroke-miterlimit="10"/>
<path d="M1252.77 475.747L1348.78 592.543L1058.01 517.408L1252.77 475.747Z" stroke="#D8BA71" stroke-opacity="0.3" stroke-miterlimit="10"/>
<path d="M1058.01 517.408L1001.45 624.926L1348.78 592.543L1058.01 517.408Z" stroke="#D8BA71" stroke-opacity="0.3" stroke-miterlimit="10"/>
<path d="M1058.01 517.408L941.703 513.224L1001.45 624.926L1058.01 517.408Z" stroke="#D8BA71" stroke-opacity="0.3" stroke-miterlimit="10"/>
<path d="M1221.07 331.844L1203.28 216.322L937.142 230.694L1221.07 331.844Z" stroke="#D8BA71" stroke-opacity="0.3" stroke-miterlimit="10"/>
<path d="M1221.07 331.844L1436.36 366.228L1203.28 216.322L1221.07 331.844Z" stroke="#D8BA71" stroke-opacity="0.3" stroke-miterlimit="10"/>
<path d="M1436.36 366.228L1252.77 475.747L1221.07 331.844L1436.36 366.228Z" stroke="#D8BA71" stroke-opacity="0.3" stroke-miterlimit="10"/>
<path d="M1436.36 366.228L1430.88 121.721L1203.28 216.322L1436.36 366.228Z" stroke="#D8BA71" stroke-opacity="0.3" stroke-miterlimit="10"/>
<path d="M1495.42 437.907L1436.36 366.228L1252.77 475.747L1495.42 437.907Z" stroke="#D8BA71" stroke-opacity="0.3" stroke-miterlimit="10"/>
<path d="M1348.78 592.543L1252.77 475.747L1495.42 437.907L1348.78 592.543Z" stroke="#D8BA71" stroke-opacity="0.3" stroke-miterlimit="10"/>
<path d="M1495.42 437.907L1485.62 592.543H1348.78L1495.42 437.907Z" stroke="#D8BA71" stroke-opacity="0.3" stroke-miterlimit="10"/>
<path d="M1395.99 677.138L1348.78 592.543H1485.62L1395.99 677.138Z" stroke="#D8BA71" stroke-opacity="0.3" stroke-miterlimit="10"/>
<path d="M1544.45 679.867L1485.62 592.543L1395.99 677.138L1544.45 679.867Z" stroke="#D8BA71" stroke-opacity="0.3" stroke-miterlimit="10"/>
<path d="M1495.42 437.907L1677.18 394.245L1436.36 366.228L1495.42 437.907Z" stroke="#D8BA71" stroke-opacity="0.3" stroke-miterlimit="10"/>
<path d="M1203.28 216.322L1008.75 148.646L937.142 230.694L1203.28 216.322Z" stroke="#D8BA71" stroke-opacity="0.3" stroke-miterlimit="10"/>
<path d="M1348.78 592.543L1009.21 841.598L1001.45 624.926L1348.78 592.543Z" stroke="#D8BA71" stroke-opacity="0.3" stroke-miterlimit="10"/>
<path d="M1058.01 517.408L941.703 513.224L937.142 230.694L1058.01 517.408Z" stroke="#D8BA71" stroke-opacity="0.3" stroke-miterlimit="10"/>
<path d="M1395.99 677.138L1009.21 841.598L1348.78 592.543L1395.99 677.138Z" stroke="#D8BA71" stroke-opacity="0.3" stroke-miterlimit="10"/>
<path d="M937.142 230.694L809.887 265.624L1008.75 148.646L937.142 230.694Z" stroke="#D8BA71" stroke-opacity="0.3" stroke-miterlimit="10"/>
<path d="M1009.21 841.598L991.875 959.85L807.378 816.857L1009.21 841.598Z" stroke="#D8BA71" stroke-opacity="0.3" stroke-miterlimit="10"/>
<path d="M1008.75 148.646L931.212 34.5787L809.887 265.624L1008.75 148.646Z" stroke="#D8BA71" stroke-opacity="0.3" stroke-miterlimit="10"/>
<path d="M1203.28 216.322L931.212 34.5787L1008.75 148.646L1203.28 216.322Z" stroke="#D8BA71" stroke-opacity="0.3" stroke-miterlimit="10"/>
<path d="M991.875 959.85L803.957 979.68L807.378 816.857L991.875 959.85Z" stroke="#D8BA71" stroke-opacity="0.3" stroke-miterlimit="10"/>
<path d="M1227 899.269L1009.21 841.598" stroke="#D8BA71" stroke-opacity="0.3" stroke-miterlimit="10"/>
<path d="M1227 899.269L1395.99 677.138L1009.21 841.599L1227 899.269Z" stroke="#D8BA71" stroke-opacity="0.3" stroke-miterlimit="10"/>
<path d="M597.339 320.201L751.733 2.0141L809.887 265.624L597.339 320.201Z" stroke="#D8BA71" stroke-opacity="0.3" stroke-miterlimit="10"/>
</svg>
